<!-- <svg width="18" height="18" viewBox="0 0 18 18" fill="#FFF" xmlns="http://www.w3.org/2000/svg">
<path d="M10.4099 9L16.7099 2.71C16.8982 2.5217 17.004 2.2663 17.004 2C17.004 1.7337 16.8982 1.47831 16.7099 1.29C16.5216 1.1017 16.2662 0.995911 15.9999 0.995911C15.7336 0.995911 15.4782 1.1017 15.2899 1.29L8.99994 7.59L2.70994 1.29C2.52164 1.1017 2.26624 0.995911 1.99994 0.995911C1.73364 0.995911 1.47824 1.1017 1.28994 1.29C1.10164 1.47831 0.995847 1.7337 0.995847 2C0.995847 2.2663 1.10164 2.5217 1.28994 2.71L7.58994 9L1.28994 15.29C1.19621 15.383 1.12182 15.4936 1.07105 15.6154C1.02028 15.7373 0.994141 15.868 0.994141 16C0.994141 16.132 1.02028 16.2627 1.07105 16.3846C1.12182 16.5064 1.19621 16.617 1.28994 16.71C1.3829 16.8037 1.4935 16.8781 1.61536 16.9289C1.73722 16.9797 1.86793 17.0058 1.99994 17.0058C2.13195 17.0058 2.26266 16.9797 2.38452 16.9289C2.50638 16.8781 2.61698 16.8037 2.70994 16.71L8.99994 10.41L15.2899 16.71C15.3829 16.8037 15.4935 16.8781 15.6154 16.9289C15.7372 16.9797 15.8679 17.0058 15.9999 17.0058C16.132 17.0058 16.2627 16.9797 16.3845 16.9289C16.5064 16.8781 16.617 16.8037 16.7099 16.71C16.8037 16.617 16.8781 16.5064 16.9288 16.3846C16.9796 16.2627 17.0057 16.132 17.0057 16C17.0057 15.868 16.9796 15.7373 16.9288 15.6154C16.8781 15.4936 16.8037 15.383 16.7099 15.29L10.4099 9Z" fill="#FFFFFF"/>
</svg> -->
<?xml version="1.0" encoding="utf-8"?><!-- Uploaded to: SVG Repo, www.svgrepo.com, Generator: SVG Repo Mixer Tools -->
<svg width="800px" height="800px" viewBox="0 -0.5 25 25" fill="none" xmlns="http://www.w3.org/2000/svg">
<path d="M6.96967 16.4697C6.67678 16.7626 6.67678 17.2374 6.96967 17.5303C7.26256 17.8232 7.73744 17.8232 8.03033 17.5303L6.96967 16.4697ZM13.0303 12.5303C13.3232 12.2374 13.3232 11.7626 13.0303 11.4697C12.7374 11.1768 12.2626 11.1768 11.9697 11.4697L13.0303 12.5303ZM11.9697 11.4697C11.6768 11.7626 11.6768 12.2374 11.9697 12.5303C12.2626 12.8232 12.7374 12.8232 13.0303 12.5303L11.9697 11.4697ZM18.0303 7.53033C18.3232 7.23744 18.3232 6.76256 18.0303 6.46967C17.7374 6.17678 17.2626 6.17678 16.9697 6.46967L18.0303 7.53033ZM13.0303 11.4697C12.7374 11.1768 12.2626 11.1768 11.9697 11.4697C11.6768 11.7626 11.6768 12.2374 11.9697 12.5303L13.0303 11.4697ZM16.9697 17.5303C17.2626 17.8232 17.7374 17.8232 18.0303 17.5303C18.3232 17.2374 18.3232 16.7626 18.0303 16.4697L16.9697 17.5303ZM11.9697 12.5303C12.2626 12.8232 12.7374 12.8232 13.0303 12.5303C13.3232 12.2374 13.3232 11.7626 13.0303 11.4697L11.9697 12.5303ZM8.03033 6.46967C7.73744 6.17678 7.26256 6.17678 6.96967 6.46967C6.67678 6.76256 6.67678 7.23744 6.96967 7.53033L8.03033 6.46967ZM8.03033 17.5303L13.0303 12.5303L11.9697 11.4697L6.96967 16.4697L8.03033 17.5303ZM13.0303 12.5303L18.0303 7.53033L16.9697 6.46967L11.9697 11.4697L13.0303 12.5303ZM11.9697 12.5303L16.9697 17.5303L18.0303 16.4697L13.0303 11.4697L11.9697 12.5303ZM13.0303 11.4697L8.03033 6.46967L6.96967 7.53033L11.9697 12.5303L13.0303 11.4697Z" fill="#000000"/>
</svg>